<svg width="186" height="84" viewBox="0 0 186 84" fill="none" xmlns="http://www.w3.org/2000/svg">
<path d="M1.4 21C1.4 18.2533 2.01333 15.8 3.24 13.64C4.49333 11.4533 6.18667 9.76 8.32 8.56C10.48 7.33333 12.8933 6.72 15.56 6.72C18.68 6.72 21.4133 7.52 23.76 9.12C26.1067 10.72 27.7467 12.9333 28.68 15.76H22.24C21.6 14.4267 20.6933 13.4267 19.52 12.76C18.3733 12.0933 17.04 11.76 15.52 11.76C13.8933 11.76 12.44 12.1467 11.16 12.92C9.90667 13.6667 8.92 14.7333 8.2 16.12C7.50667 17.5067 7.16 19.1333 7.16 21C7.16 22.84 7.50667 24.4667 8.2 25.88C8.92 27.2667 9.90667 28.3467 11.16 29.12C12.44 29.8667 13.8933 30.24 15.52 30.24C17.04 30.24 18.3733 29.9067 19.52 29.24C20.6933 28.5467 21.6 27.5333 22.24 26.2H28.68C27.7467 29.0533 26.1067 31.28 23.76 32.88C21.44 34.4533 18.7067 35.24 15.56 35.24C12.8933 35.24 10.48 34.64 8.32 33.44C6.18667 32.2133 4.49333 30.52 3.24 28.36C2.01333 26.2 1.4 23.7467 1.4 21ZM43.3031 35.36C41.1698 35.36 39.2498 34.8933 37.5431 33.96C35.8365 33 34.4898 31.6533 33.5031 29.92C32.5431 28.1867 32.0631 26.1867 32.0631 23.92C32.0631 21.6533 32.5565 19.6533 33.5431 17.92C34.5565 16.1867 35.9298 14.8533 37.6631 13.92C39.3965 12.96 41.3298 12.48 43.4631 12.48C45.5965 12.48 47.5298 12.96 49.2631 13.92C50.9965 14.8533 52.3565 16.1867 53.3431 17.92C54.3565 19.6533 54.8631 21.6533 54.8631 23.92C54.8631 26.1867 54.3431 28.1867 53.3031 29.92C52.2898 31.6533 50.9031 33 49.1431 33.96C47.4098 34.8933 45.4631 35.36 43.3031 35.36ZM43.3031 30.48C44.3165 30.48 45.2631 30.24 46.1431 29.76C47.0498 29.2533 47.7698 28.5067 48.3031 27.52C48.8365 26.5333 49.1031 25.3333 49.1031 23.92C49.1031 21.8133 48.5431 20.2 47.4231 19.08C46.3298 17.9333 44.9831 17.36 43.3831 17.36C41.7831 17.36 40.4365 17.9333 39.3431 19.08C38.2765 20.2 37.7431 21.8133 37.7431 23.92C37.7431 26.0267 38.2631 27.6533 39.3031 28.8C40.3698 29.92 41.7031 30.48 43.3031 30.48ZM57.5309 23.84C57.5309 21.6 57.9709 19.6133 58.8509 17.88C59.7576 16.1467 60.9843 14.8133 62.5309 13.88C64.0776 12.9467 65.7976 12.48 67.6909 12.48C69.1309 12.48 70.5043 12.8 71.8109 13.44C73.1176 14.0533 74.1576 14.88 74.9309 15.92V5.4H80.6109V35H74.9309V31.72C74.2376 32.8133 73.2643 33.6933 72.0109 34.36C70.7576 35.0267 69.3043 35.36 67.6509 35.36C65.7843 35.36 64.0776 34.88 62.5309 33.92C60.9843 32.96 59.7576 31.6133 58.8509 29.88C57.9709 28.12 57.5309 26.1067 57.5309 23.84ZM74.9709 23.92C74.9709 22.56 74.7043 21.4 74.1709 20.44C73.6376 19.4533 72.9176 18.7067 72.0109 18.2C71.1043 17.6667 70.1309 17.4 69.0909 17.4C68.0509 17.4 67.0909 17.6533 66.2109 18.16C65.3309 18.6667 64.6109 19.4133 64.0509 20.4C63.5176 21.36 63.2509 22.5067 63.2509 23.84C63.2509 25.1733 63.5176 26.3467 64.0509 27.36C64.6109 28.3467 65.3309 29.1067 66.2109 29.64C67.1176 30.1733 68.0776 30.44 69.0909 30.44C70.1309 30.44 71.1043 30.1867 72.0109 29.68C72.9176 29.1467 73.6376 28.4 74.1709 27.44C74.7043 26.4533 74.9709 25.28 74.9709 23.92ZM106.68 23.44C106.68 24.24 106.627 24.96 106.52 25.6H90.3203C90.4536 27.2 91.0136 28.4533 92.0003 29.36C92.987 30.2667 94.2003 30.72 95.6403 30.72C97.7203 30.72 99.2003 29.8267 100.08 28.04H106.12C105.48 30.1733 104.254 31.9333 102.44 33.32C100.627 34.68 98.4003 35.36 95.7603 35.36C93.627 35.36 91.707 34.8933 90.0003 33.96C88.3203 33 87.0003 31.6533 86.0403 29.92C85.107 28.1867 84.6403 26.1867 84.6403 23.92C84.6403 21.6267 85.107 19.6133 86.0403 17.88C86.9736 16.1467 88.2803 14.8133 89.9603 13.88C91.6403 12.9467 93.5736 12.48 95.7603 12.48C97.867 12.48 99.747 12.9333 101.4 13.84C103.08 14.7467 104.374 16.04 105.28 17.72C106.214 19.3733 106.68 21.28 106.68 23.44ZM100.88 21.84C100.854 20.4 100.334 19.2533 99.3203 18.4C98.307 17.52 97.067 17.08 95.6003 17.08C94.2136 17.08 93.0403 17.5067 92.0803 18.36C91.147 19.1867 90.5736 20.3467 90.3603 21.84H100.88ZM1.4 63C1.4 60.2533 2.01333 57.8 3.24 55.64C4.49333 53.4533 6.18667 51.76 8.32 50.56C10.48 49.3333 12.8933 48.72 15.56 48.72C18.68 48.72 21.4133 49.52 23.76 51.12C26.1067 52.72 27.7467 54.9333 28.68 57.76H22.24C21.6 56.4267 20.6933 55.4267 19.52 54.76C18.3733 54.0933 17.04 53.76 15.52 53.76C13.8933 53.76 12.44 54.1467 11.16 54.92C9.90667 55.6667 8.92 56.7333 8.2 58.12C7.50667 59.5067 7.16 61.1333 7.16 63C7.16 64.84 7.50667 66.4667 8.2 67.88C8.92 69.2667 9.90667 70.3467 11.16 71.12C12.44 71.8667 13.8933 72.24 15.52 72.24C17.04 72.24 18.3733 71.9067 19.52 71.24C20.6933 70.5467 21.6 69.5333 22.24 68.2H28.68C27.7467 71.0533 26.1067 73.28 23.76 74.88C21.44 76.4533 18.7067 77.24 15.56 77.24C12.8933 77.24 10.48 76.64 8.32 75.44C6.18667 74.2133 4.49333 72.52 3.24 70.36C2.01333 68.2 1.4 65.7467 1.4 63ZM32.0231 65.84C32.0231 63.6 32.4631 61.6133 33.3431 59.88C34.2498 58.1467 35.4631 56.8133 36.9831 55.88C38.5298 54.9467 40.2498 54.48 42.1431 54.48C43.7965 54.48 45.2365 54.8133 46.4631 55.48C47.7165 56.1467 48.7165 56.9867 49.4631 58V54.84H55.1031V77H49.4631V73.76C48.7431 74.8 47.7431 75.6667 46.4631 76.36C45.2098 77.0267 43.7565 77.36 42.1031 77.36C40.2365 77.36 38.5298 76.88 36.9831 75.92C35.4631 74.96 34.2498 73.6133 33.3431 71.88C32.4631 70.12 32.0231 68.1067 32.0231 65.84ZM49.4631 65.92C49.4631 64.56 49.1965 63.4 48.6631 62.44C48.1298 61.4533 47.4098 60.7067 46.5031 60.2C45.5965 59.6667 44.6231 59.4 43.5831 59.4C42.5431 59.4 41.5831 59.6533 40.7031 60.16C39.8231 60.6667 39.1031 61.4133 38.5431 62.4C38.0098 63.36 37.7431 64.5067 37.7431 65.84C37.7431 67.1733 38.0098 68.3467 38.5431 69.36C39.1031 70.3467 39.8231 71.1067 40.7031 71.64C41.6098 72.1733 42.5698 72.44 43.5831 72.44C44.6231 72.44 45.5965 72.1867 46.5031 71.68C47.4098 71.1467 48.1298 70.4 48.6631 69.44C49.1965 68.4533 49.4631 67.28 49.4631 65.92ZM59.1325 65.84C59.1325 63.6 59.5725 61.6133 60.4525 59.88C61.3592 58.1467 62.5858 56.8133 64.1325 55.88C65.6792 54.9467 67.3992 54.48 69.2925 54.48C70.7325 54.48 72.1058 54.8 73.4125 55.44C74.7192 56.0533 75.7592 56.88 76.5325 57.92V47.4H82.2125V77H76.5325V73.72C75.8392 74.8133 74.8658 75.6933 73.6125 76.36C72.3592 77.0267 70.9058 77.36 69.2525 77.36C67.3858 77.36 65.6792 76.88 64.1325 75.92C62.5858 74.96 61.3592 73.6133 60.4525 71.88C59.5725 70.12 59.1325 68.1067 59.1325 65.84ZM76.5725 65.92C76.5725 64.56 76.3058 63.4 75.7725 62.44C75.2392 61.4533 74.5192 60.7067 73.6125 60.2C72.7058 59.6667 71.7325 59.4 70.6925 59.4C69.6525 59.4 68.6925 59.6533 67.8125 60.16C66.9325 60.6667 66.2125 61.4133 65.6525 62.4C65.1192 63.36 64.8525 64.5067 64.8525 65.84C64.8525 67.1733 65.1192 68.3467 65.6525 69.36C66.2125 70.3467 66.9325 71.1067 67.8125 71.64C68.7192 72.1733 69.6792 72.44 70.6925 72.44C71.7325 72.44 72.7058 72.1867 73.6125 71.68C74.5192 71.1467 75.2392 70.4 75.7725 69.44C76.3058 68.4533 76.5725 67.28 76.5725 65.92ZM108.282 65.44C108.282 66.24 108.229 66.96 108.122 67.6H91.9219C92.0552 69.2 92.6152 70.4533 93.6019 71.36C94.5885 72.2667 95.8019 72.72 97.2419 72.72C99.3219 72.72 100.802 71.8267 101.682 70.04H107.722C107.082 72.1733 105.855 73.9333 104.042 75.32C102.229 76.68 100.002 77.36 97.3619 77.36C95.2285 77.36 93.3085 76.8933 91.6019 75.96C89.9219 75 88.6019 73.6533 87.6419 71.92C86.7085 70.1867 86.2419 68.1867 86.2419 65.92C86.2419 63.6267 86.7085 61.6133 87.6419 59.88C88.5752 58.1467 89.8819 56.8133 91.5619 55.88C93.2419 54.9467 95.1752 54.48 97.3619 54.48C99.4685 54.48 101.349 54.9333 103.002 55.84C104.682 56.7467 105.975 58.04 106.882 59.72C107.815 61.3733 108.282 63.28 108.282 65.44ZM102.482 63.84C102.455 62.4 101.935 61.2533 100.922 60.4C99.9085 59.52 98.6685 59.08 97.2019 59.08C95.8152 59.08 94.6419 59.5067 93.6819 60.36C92.7485 61.1867 92.1752 62.3467 91.9619 63.84H102.482Z" fill="white"/>
<path d="M118.889 59.44V70.16C118.889 70.9067 119.063 71.4533 119.409 71.8C119.783 72.12 120.396 72.28 121.249 72.28H123.849V77H120.329C115.609 77 113.249 74.7067 113.249 70.12V59.44H110.609V54.84H113.249V49.36H118.889V54.84H123.849V59.44H118.889ZM134.397 59.44V70.16C134.397 70.9067 134.571 71.4533 134.917 71.8C135.291 72.12 135.904 72.28 136.757 72.28H139.357V77H135.837C131.117 77 128.757 74.7067 128.757 70.12V59.44H126.117V54.84H128.757V49.36H134.397V54.84H139.357V59.44H134.397Z" fill="#4CF58C"/>
<path d="M185.936 61.75C185.936 72.3815 175.219 81 162 81C162 81 162 72.3815 162 61.75C162 51.1185 162 42.5 162 42.5C175.219 42.5 185.936 51.1185 185.936 61.75Z" fill="#4CF58C"/>
<path d="M138 23.25C138 33.8815 148.717 42.5 161.936 42.5C161.936 42.5 161.936 33.8815 161.936 23.25C161.936 12.6185 161.936 4 161.936 4C148.717 4 138 12.6185 138 23.25Z" fill="#4CF58C"/>
</svg>
