<svg width="250" height="427" viewBox="0 0 250 427" fill="none" xmlns="http://www.w3.org/2000/svg">
<path opacity="0.08" d="M0.680001 202.24C27.28 196.16 40.58 181.34 40.58 157.78C40.58 146.127 39.1867 129.913 36.4 109.14C36.1467 106.86 35.3867 99.8933 34.12 88.24C32.8533 76.3333 32.22 65.44 32.22 55.56C32.22 37.32 37.16 23.64 47.04 14.52C56.92 5.14666 70.3467 0.459989 87.32 0.459989H106.32V23.64H91.88C80.7333 23.64 72.2467 26.3 66.42 31.62C60.8467 36.94 58.06 45.5533 58.06 57.46C58.06 66.3267 58.6933 76.46 59.96 87.86C61.2267 99.0067 61.9867 105.847 62.24 108.38C65.0267 129.66 66.42 146.38 66.42 158.54C66.42 172.473 62.8733 184.253 55.78 193.88C48.94 203.253 38.3 209.587 23.86 212.88V213.64C38.3 216.933 48.94 223.393 55.78 233.02C62.8733 242.393 66.42 254.047 66.42 267.98C66.42 279.887 65.0267 296.48 62.24 317.76C61.9867 320.547 61.2267 327.64 59.96 339.04C58.6933 350.187 58.06 360.193 58.06 369.06C58.06 380.967 60.8467 389.58 66.42 394.9C72.2467 400.22 80.7333 402.88 91.88 402.88H106.32V426.06H87.32C70.3467 426.06 56.92 421.373 47.04 412C37.16 402.88 32.22 389.2 32.22 370.96C32.22 361.08 32.8533 350.313 34.12 338.66C35.3867 326.753 36.1467 319.533 36.4 317C39.1867 295.973 40.58 279.887 40.58 268.74C40.58 245.18 27.28 230.233 0.680001 223.9V202.24ZM249.233 223.9C222.633 230.233 209.333 245.18 209.333 268.74C209.333 279.887 210.726 295.973 213.513 317C213.766 319.533 214.526 326.753 215.793 338.66C217.059 350.313 217.693 361.08 217.693 370.96C217.693 389.2 212.753 402.88 202.873 412C192.993 421.373 179.566 426.06 162.593 426.06H143.593V402.88H158.033C169.179 402.88 177.539 400.22 183.113 394.9C188.939 389.58 191.853 380.967 191.853 369.06C191.853 360.193 191.219 350.187 189.953 339.04C188.686 327.64 187.926 320.547 187.673 317.76C184.886 296.48 183.493 279.887 183.493 267.98C183.493 254.047 186.913 242.393 193.753 233.02C200.846 223.393 211.613 216.933 226.053 213.64V212.88C211.613 209.587 200.846 203.253 193.753 193.88C186.913 184.253 183.493 172.473 183.493 158.54C183.493 146.38 184.886 129.66 187.673 108.38C187.926 105.847 188.686 99.0067 189.953 87.86C191.219 76.46 191.853 66.3267 191.853 57.46C191.853 45.5533 188.939 36.94 183.113 31.62C177.539 26.3 169.179 23.64 158.033 23.64H143.593V0.459989H162.593C179.566 0.459989 192.993 5.14666 202.873 14.52C212.753 23.64 217.693 37.32 217.693 55.56C217.693 65.44 217.059 76.3333 215.793 88.24C214.526 99.8933 213.766 106.86 213.513 109.14C210.726 129.913 209.333 146.127 209.333 157.78C209.333 181.34 222.633 196.16 249.233 202.24V223.9Z" fill="#8B909A"/>
</svg>
